<?xml version="1.0" encoding="UTF-8"?>
<svg id="_レイヤー_1" data-name="レイヤー 1" xmlns="http://www.w3.org/2000/svg" viewBox="0 0 256 256">
  <defs>
    <style>
      .cls-1, .cls-2, .cls-3, .cls-4 {
        stroke-width: 0px;
      }

      .cls-2 {
        fill: #383838;
      }

      .cls-3 {
        fill: #b3b3b3;
      }

      .cls-4 {
        fill: #fff;
      }
    </style>
  </defs>
  <g>
    <rect class="cls-1" width="256" height="256" rx="9.07" ry="9.07"/>
    <g>
      <path class="cls-4" d="m135.3,41.28c-13.23,1.52-17.01,3.3-24.45,21.73-5.9,14.46-28.89,69.5-41.9,102.24h-9.43c-7.75-21.16-30.6-81.42-40.02-105.28-5.97-14.76-8.84-17.5-21.53-18.69v-6.69h57.26l-.13,6.69c-14.63,1.84-14.91,3.57-11.86,11.52,5.76,15.84,20.58,56.08,29.38,78.87,11.48-27.3,23.08-56.05,29.34-73.12,4.78-12.88,3.03-15.43-13.58-17.28v-6.69h46.9v6.69Z"/>
      <path class="cls-4" d="m254.82,164.41c-1.69,0-4.01-.07-6.47-.27-21.56-1.12-29.07-5.9-36.03-15.59-7.77-10.6-14.04-22.79-20.68-34.03-3.34-5.68-6.06-6.87-13.77-6.87l-5.04-.13v29.62c0,16.29,2.06,17.53,17.37,19.24v6.69h-58.3v-6.69c15.64-1.65,17.3-2.96,17.3-19.24V60.33c0-16.03-2.06-17.65-17.3-19.05v-6.69h55.39c16.63,0,26.66,1.91,34.63,7.23,8.05,5.27,13.43,14.04,13.43,26.22,0,17.39-11.49,27.16-25.21,32.72,3.2,6,11.26,18.99,17.24,28.01,7.12,10.73,11.3,15.93,15.36,20.49,4.87,5.35,7.9,7.14,13.26,8.84l-1.19,6.31Zm-75.14-64.5c9.2,0,15.78-1.45,20.38-5.35,7-5.6,9.93-13.25,9.93-23.54,0-21.02-12.86-28.6-25.5-28.6-5.52,0-8.4.79-9.66,1.98-1.54,1.25-2,3.49-2,7.86v47.66h6.85Z"/>
    </g>
    <g>
      <path class="cls-4" d="m64.78,201.13c2.47,0,5.3-.05,7.62-.15.61-.05.66.25.71.81.1,1.26.1,2.73,0,3.99-.05.66-.15.86-.86.81-1.72,0-4.8-.05-7.27-.05h-2.07c-.3,7.22-1.41,11.46-3.89,15.55-2.52,4.19-6.61,7.22-11.91,9.39-.71.3-1.11.45-1.41.45s-.56-.15-.96-.56c-1.51-1.56-2.47-2.27-4.19-3.03,7.17-2.22,11.05-4.79,13.63-8.93,1.97-3.23,2.78-6.71,2.98-12.87h-10.75v1.82c0,2.98,0,5.7.15,8.38.05.56-.3.66-.86.71-1.31.1-2.98.1-4.34,0-.66-.05-.96-.15-.91-.71.15-2.62.25-5.1.25-8.28v-1.92h-1.51c-2.73,0-6.76.15-8.33.25-.4,0-.56-.3-.61-.96-.2-1.06-.25-2.83-.35-4.9,2.12.15,5.4.25,9.29.25h1.51v-3.68c0-3.23-.1-4.49-.61-7.42,2.62.25,5.1.5,6.16.81.56.1.76.35.76.71,0,.3-.15.66-.3,1.06-.35.91-.35,1.41-.35,4.85v3.68h10.85l.05-4.95c.05-2.83-.1-5.15-.45-6.92,1.92.2,4.69.5,5.91.86.71.15.91.4.91.81,0,.2-.05.5-.2.91-.35.96-.4,2.27-.4,4.44v4.8h1.77Z"/>
      <path class="cls-4" d="m94.52,214.06c-5,0-6.92.61-7.42.61-.61,0-1.01-.3-1.16-1.06-.25-1.16-.56-3.53-.76-6.11,3.28.5,5.8.61,10.9.61h16.25c3.84,0,7.72-.1,11.61-.15.76-.05.91.1.91.71.1,1.51.1,3.23,0,4.75,0,.61-.2.81-.91.76-3.79-.05-7.52-.1-11.26-.1h-18.17Z"/>
      <path class="cls-4" d="m167.81,197.2c1.31-.05,1.97-.25,2.52-.61.2-.15.4-.2.66-.2s.5.1.81.3c1.26.81,2.42,1.77,3.43,2.73.45.4.66.81.66,1.16,0,.4-.25.76-.61,1.06-.71.56-1.21,1.26-1.67,2.17-3.38,6.87-6.61,11.76-9.99,15.6-4.34,4.9-10.35,9.79-15.34,12.57-.3.2-.56.25-.81.25-.4,0-.76-.2-1.16-.55-1.26-1.01-2.83-1.77-4.79-2.32,7.87-4.34,11.86-7.52,16.81-12.87,3.99-4.44,6.31-7.88,9.34-14.34l-12.22.35c-4.14,5.1-6.66,7.98-9.54,10.35-.35.35-.71.56-1.06.56-.25,0-.5-.1-.76-.3-1.26-.91-3.13-1.82-4.85-2.17,6.56-5.35,10.45-10.04,13.58-14.99,1.67-2.83,2.42-4.39,2.98-6.81,2.88,1.01,4.8,1.87,5.91,2.67.35.25.5.56.5.86s-.15.61-.56.86c-.5.3-.86.86-1.26,1.36-.56.86-1.06,1.62-1.67,2.52l9.09-.2Z"/>
      <path class="cls-4" d="m206.08,197.65c.86.25.96.86.66,1.56-.55,1.11-.61,2.22-.61,3.43-.1,6.31-1.06,11.1-2.73,14.84-1.31,3.08-3.53,6.36-7.17,9.49-.5.4-.91.66-1.31.66-.3,0-.61-.15-.96-.4-1.26-.86-2.47-1.46-4.29-2.12,3.94-2.98,6.61-6.06,8.38-10.04,1.41-3.43,2.07-6.21,2.12-14.28,0-1.92-.1-2.73-.5-4.24,2.88.35,5.2.71,6.41,1.11Zm11.21,21.35c2.47-1.31,4.79-2.88,7.17-4.69,3.03-2.32,6.01-5,8.83-8.58.2,1.77.71,3.43,1.56,5.1.15.35.3.61.3.86,0,.35-.2.71-.76,1.26-2.52,2.58-4.85,4.64-7.47,6.61-2.62,2.02-5.45,3.99-8.98,6.06-.91.61-1.01.71-1.46,1.06-.3.25-.66.4-1.01.4-.3,0-.66-.15-1.06-.4-1.11-.76-2.27-2.07-3.03-3.08-.3-.46-.45-.76-.45-1.06,0-.25.05-.45.2-.76.35-.66.3-1.26.3-3.84v-15.8c0-4.39,0-6.46-.5-8.78,2.02.25,4.8.61,6.31,1.06.66.15.91.45.91.86,0,.3-.15.76-.4,1.26-.45.96-.45,1.97-.45,5.6v16.86Z"/>
    </g>
  </g>
  <g>
    <path class="cls-2" d="m727.5-187V443H-468.5V-187H727.5m80-80H-548.5v790H807.5V-267h0Z"/>
    <path class="cls-3" d="m696.5-156V412H-437.5V-156H696.5m31-31H-468.5V443H727.5V-187h0Z"/>
  </g>
</svg>